HIERARCHY
ROOT hip
{
  OFFSET 0 0 0
  CHANNELS 6 Xposition Yposition Zposition Zrotation Yrotation Xrotation
  JOINT abdomen
  {
    OFFSET 0 20.6881 -0.73152
    CHANNELS 3 Zrotation Xrotation Yrotation
    JOINT chest
    {
      OFFSET 0 11.7043 -0.48768
      CHANNELS 3 Zrotation Xrotation Yrotation
      JOINT neck
      {
        OFFSET 0 22.1894 -2.19456
        CHANNELS 3 Zrotation Xrotation Yrotation
        JOINT head
        {
          OFFSET -0.24384 7.07133 1.2192
          CHANNELS 3 Zrotation Xrotation Yrotation
          JOINT leftEye
          {
            OFFSET 4.14528 8.04674 8.04672
            CHANNELS 3 Zrotation Xrotation Yrotation
            End Site
            {
              OFFSET 1 0 0
            }
          }
          JOINT rightEye
          {
            OFFSET -3.6576 8.04674 8.04672
            CHANNELS 3 Zrotation Xrotation Yrotation
            End Site
            {
              OFFSET 1 0 0
            }
          }
        }
      }
      JOINT rCollar
      {
        OFFSET -2.68224 19.2634 -4.8768
        CHANNELS 3 Zrotation Xrotation Yrotation
        JOINT rShldr
        {
          OFFSET -8.77824 -1.95073 1.46304
          CHANNELS 3 Zrotation Xrotation Yrotation
          JOINT rForeArm
          {
            OFFSET -28.1742 -1.7115 0.48768
            CHANNELS 3 Zrotation Xrotation Yrotation
            JOINT rHand
            {
              OFFSET -22.5879 0.773209 7.07136
              CHANNELS 3 Zrotation Xrotation Yrotation
              JOINT rThumb1
              {
                OFFSET -1.2192 -0.487915 3.41376
                CHANNELS 3 Zrotation Xrotation Yrotation
                JOINT rThumb2
                {
                  OFFSET -3.37035 -0.52449 3.41376
                  CHANNELS 3 Zrotation Xrotation Yrotation
                  End Site
                  {
                    OFFSET -1.78271 -1.18214 1.43049
                  }
                }
              }
              JOINT rIndex1
              {
                OFFSET -7.75947 0.938293 5.60832
                CHANNELS 3 Zrotation Xrotation Yrotation
                JOINT rIndex2
                {
                  OFFSET -2.54057 -0.884171 1.56538
                  CHANNELS 3 Zrotation Xrotation Yrotation
                  End Site
                  {
                    OFFSET -1.62519 -0.234802 1.16502
                  }
                }
              }
              JOINT rMid1
              {
                OFFSET -8.24714 1.18213 3.41376
                CHANNELS 3 Zrotation Xrotation Yrotation
                JOINT rMid2
                {
                  OFFSET -3.10165 -0.590103 1.0647
                  CHANNELS 3 Zrotation Xrotation Yrotation
                  End Site
                  {
                    OFFSET -2.48547 -0.328903 0.83742
                  }
                }
              }
              JOINT rRing1
              {
                OFFSET -8.82822 0.546677 1.51678
                CHANNELS 3 Zrotation Xrotation Yrotation
                JOINT rRing2
                {
                  OFFSET -2.60934 -0.819778 -0.0198488
                  CHANNELS 3 Zrotation Xrotation Yrotation
                  End Site
                  {
                    OFFSET -2.33842 -0.294052 0.168128
                  }
                }
              }
              JOINT rPinky1
              {
                OFFSET -8.27202 -0.0477905 -0.4584
                CHANNELS 3 Zrotation Xrotation Yrotation
                JOINT rPinky2
                {
                  OFFSET -1.82734 -0.647385 -0.700984
                  CHANNELS 3 Zrotation Xrotation Yrotation
                  End Site
                  {
                    OFFSET -1.69225 -0.51767 -0.607171
                  }
                }
              }
            }
          }
        }
      }
      JOINT lCollar
      {
        OFFSET 2.68224 19.2634 -4.8768
        CHANNELS 3 Zrotation Xrotation Yrotation
        JOINT lShldr
        {
          OFFSET 8.77824 -1.95073 1.46304
          CHANNELS 3 Zrotation Xrotation Yrotation
          JOINT lForeArm
          {
            OFFSET 28.1742 -1.7115 0.48768
            CHANNELS 3 Zrotation Xrotation Yrotation
            JOINT lHand
            {
              OFFSET 22.5879 0.773209 7.07136
              CHANNELS 3 Zrotation Xrotation Yrotation
              JOINT lThumb1
              {
                OFFSET 1.2192 -0.487915 3.41376
                CHANNELS 3 Zrotation Xrotation Yrotation
                JOINT lThumb2
                {
                  OFFSET 3.37035 -0.52449 3.41376
                  CHANNELS 3 Zrotation Xrotation Yrotation
                  End Site
                  {
                    OFFSET 1.78271 -1.18214 1.43049
                  }
                }
              }
              JOINT lIndex1
              {
                OFFSET 7.75947 0.938293 5.60832
                CHANNELS 3 Zrotation Xrotation Yrotation
                JOINT lIndex2
                {
                  OFFSET 2.54057 -0.884171 1.56538
                  CHANNELS 3 Zrotation Xrotation Yrotation
                  End Site
                  {
                    OFFSET 1.62519 -0.234802 1.16502
                  }
                }
              }
              JOINT lMid1
              {
                OFFSET 8.24714 1.18213 3.41376
                CHANNELS 3 Zrotation Xrotation Yrotation
                JOINT lMid2
                {
                  OFFSET 3.10165 -0.590103 1.0647
                  CHANNELS 3 Zrotation Xrotation Yrotation
                  End Site
                  {
                    OFFSET 2.48547 -0.328903 0.83742
                  }
                }
              }
              JOINT lRing1
              {
                OFFSET 8.82822 0.546677 1.51678
                CHANNELS 3 Zrotation Xrotation Yrotation
                JOINT lRing2
                {
                  OFFSET 2.60934 -0.819778 -0.0198488
                  CHANNELS 3 Zrotation Xrotation Yrotation
                  End Site
                  {
                    OFFSET 2.33842 -0.294052 0.168128
                  }
                }
              }
              JOINT lPinky1
              {
                OFFSET 8.27202 -0.0477905 -0.4584
                CHANNELS 3 Zrotation Xrotation Yrotation
                JOINT lPinky2
                {
                  OFFSET 1.82734 -0.647385 -0.700984
                  CHANNELS 3 Zrotation Xrotation Yrotation
                  End Site
                  {
                    OFFSET 1.69225 -0.51767 -0.607171
                  }
                }
              }
            }
          }
        }
      }
    }
  }
  JOINT rButtock
  {
    OFFSET -8.77824 4.35084 1.2192
    CHANNELS 3 Zrotation Xrotation Yrotation
    JOINT rThigh
    {
      OFFSET 0 -1.70687 -2.19456
      CHANNELS 3 Zrotation Xrotation Yrotation
      JOINT rShin
      {
        OFFSET 0 -36.8199 0.73152
        CHANNELS 3 Zrotation Xrotation Yrotation
        JOINT rFoot
        {
          OFFSET 0.73152 -45.1104 -5.12064
          CHANNELS 3 Zrotation Xrotation Yrotation
          End Site
          {
            OFFSET -1.1221 -3.69964 12.103
          }
        }
      }
    }
  }
  JOINT lButtock
  {
    OFFSET 8.77824 4.35084 1.2192
    CHANNELS 3 Zrotation Xrotation Yrotation
    JOINT lThigh
    {
      OFFSET 0 -1.70687 -2.19456
      CHANNELS 3 Zrotation Xrotation Yrotation
      JOINT lShin
      {
        OFFSET 0 -36.8199 0.73152
        CHANNELS 3 Zrotation Xrotation Yrotation
        JOINT lFoot
        {
          OFFSET -0.73152 -45.1104 -5.12064
          CHANNELS 3 Zrotation Xrotation Yrotation
          End Site
          {
            OFFSET 1.1221 -3.69964 12.103
          }
        }
      }
    }
  }
}
MOTION
Frames:	5
Frame Time:	0.00833333
59.4863 85.0114 -141.868 0.0 0.0 0.0 0.0256064 -6.19212e-06 0.000728841 0.0070648 8.63087e-06 0.00122382 -1.06802e-16 -7.95139e-16 -6.98852e-18 -3.19919e-16 3.18055e-15 -2.17421e-17 -0.0 0.0 0.0 -0.0 0.0 0.0 -1.32855e-18 -3.88251e-19 1.98785e-16 7.69999e-16 -2.04997e-16 7.95139e-16 -1.93815e-14 2.38542e-15 -1.90833e-14 -2.16986e-13 -1.86858e-14 -1.59028e-14 -5.14043e-13 -3.59103e-14 -4.13472e-14 -8.94929e-13 -6.36111e-14 -6.75868e-14 -5.05311e-13 -3.26007e-14 -5.08889e-14 7.73091 5.47488 0.417314 -5.13361e-13 -3.54831e-14 -3.81667e-14 2.90554 0.965183 0.102902 -5.07858e-13 -3.58806e-14 -3.57812e-14 10.2786 0.731801 0.0259123 -5.20418e-13 -3.57812e-14 -2.22639e-14 2.22167 -0.733487 -0.20892 -9.80683e-17 -1.94126e-19 -1.98785e-16 -3.15435e-15 -9.93923e-17 -7.95139e-16 -1.83876e-14 -6.75868e-15 3.18055e-15 -2.19508e-13 2.73329e-16 -1.27222e-14 -5.12723e-13 -1.7025e-14 -2.8625e-14 -8.76243e-13 -3.18055e-14 -4.6118e-14 -5.18033e-13 -1.55052e-14 -2.22639e-14 -7.73091 5.47488 -0.417314 -5.11672e-13 -1.71949e-14 -3.49861e-14 -2.90554 0.965183 -0.102902 -5.19809e-13 -1.67973e-14 -3.02153e-14 -10.2786 0.731801 -0.0259123 -5.07696e-13 -1.70955e-14 -4.77083e-14 -2.22167 -0.733487 0.20892 -2.03217e-16 0.0 -3.88251e-19 0.512301 -3.13364 -0.0420886 -0.00562803 0.1231 -0.0495525 -0.492801 3.00963 0.11736 2.03217e-16 0.0 3.88251e-19 -0.473324 -3.03453 0.0397104 0.00592197 -0.056435 0.0521749 0.492504 3.09005 -0.118955
57.5136 83.755 -141.805 -5.9944 -6.353 0.9245 2.47898 1.31034 0.701469 0.786871 -1.08089 0.251855 -2.31385 0.860977 -1.18849 2.68623 -0.705847 -1.78244 -0.0 0.0 0.0 -0.0 0.0 0.0 7.37564e-15 3.13355e-14 1.73083e-13 20.3356 5.64345 2.12354 -5.56625 -2.87091 8.2913 0.00259255 1.12999 0.158698 -8.88451e-10 2.43871e-09 1.71491e-10 -1.53549e-09 4.21665e-09 3.02271e-10 -8.88443e-10 2.43871e-09 1.71482e-10 7.73091 5.47488 0.417314 -8.88451e-10 2.43871e-09 1.71491e-10 2.90554 0.965183 0.102902 -8.88445e-10 2.43871e-09 1.71493e-10 10.2786 0.731801 0.0259123 -8.88457e-10 2.43871e-09 1.71504e-10 2.22167 -0.733487 -0.20892 7.3085e-15 3.13372e-14 1.72768e-13 -23.0362 5.09341 1.08501 3.6808 -1.5778 -5.84784 -0.0163719 2.85209 -0.399074 -5.72902e-10 -6.67857e-10 5.84455e-10 -9.83864e-10 -1.14961e-09 1.01647e-09 -5.72907e-10 -6.67856e-10 5.84462e-10 -7.73091 5.47488 -0.417314 -5.729e-10 -6.67856e-10 5.8445e-10 -2.90554 0.965183 -0.102902 -5.72909e-10 -6.67855e-10 5.84452e-10 -10.2786 0.731801 -0.0259123 -5.72897e-10 -6.67856e-10 5.84436e-10 -2.22167 -0.733487 0.20892 -2.03217e-16 0.0 -3.88251e-19 4.28572 -0.378492 1.03578 0.0284185 3.79001 0.106251 -0.490702 -1.3109 0.219301 2.03217e-16 0.0 3.88251e-19 2.21646 -12.6559 -0.346953 0.000559849 8.31563 -0.0786918 0.604789 2.23168 2.65812
57.3688 83.7848 -140.558 -5.9559 -6.9248 1.4007 5.04931 2.7071 1.42533 1.62911 -2.2259 0.5127 -4.72319 1.77398 -2.44722 5.48011 -1.45139 -3.67036 -0.0 0.0 0.0 -0.0 0.0 0.0 1.48461e-14 6.55723e-14 3.65559e-13 41.3793 11.5777 4.41705 -10.5416 -5.69221 17.1009 -0.00147492 2.32058 0.326117 -1.86762e-09 5.12971e-09 3.60494e-10 -3.22776e-09 8.86953e-09 6.35388e-10 -1.86762e-09 5.12972e-09 3.60486e-10 7.73091 5.47488 0.417314 -1.86762e-09 5.12972e-09 3.60492e-10 2.90554 0.965183 0.102902 -1.86762e-09 5.12972e-09 3.60492e-10 10.2786 0.731801 0.0259123 -1.86763e-09 5.12972e-09 3.60502e-10 2.22167 -0.733487 -0.20892 1.4811e-14 6.55757e-14 3.65332e-13 -47.5846 10.5473 2.22635 7.23307 -3.19697 -12.059 0.00972916 5.83492 -0.819813 -1.20628e-09 -1.41012e-09 1.22829e-09 -2.07164e-09 -2.42734e-09 2.13622e-09 -1.20628e-09 -1.41012e-09 1.22829e-09 -7.73091 5.47488 -0.417314 -1.20627e-09 -1.41012e-09 1.22828e-09 -2.90554 0.965183 -0.102902 -1.20628e-09 -1.41012e-09 1.22828e-09 -10.2786 0.731801 -0.0259123 -1.20627e-09 -1.41012e-09 1.22827e-09 -2.22167 -0.733487 0.20892 -2.03217e-16 0.0 -3.88251e-19 8.18424 2.46557 2.16359 0.0429026 7.70937 0.27446 -0.475256 -5.89974 0.308268 2.03217e-16 0.0 3.88251e-19 4.91644 -22.8255 -0.743219 0.0385971 17.279 -0.226487 0.802467 1.41409 5.52348
57.2893 83.7338 -139.323 -5.7888 -7.3216 1.9264 7.2894 3.92867 2.10735 2.37489 -3.24242 0.754191 -6.83437 2.57848 -3.5687 7.92709 -2.10934 -5.35056 -0.0 0.0 0.0 -0.0 0.0 0.0 2.21296e-14 9.40073e-14 5.18852e-13 59.707 16.8352 6.62485 -14.2734 -7.89277 25.0964 -0.0110293 3.38987 0.476837 -2.66432e-09 7.31619e-09 5.14555e-10 -4.60469e-09 1.26501e-08 9.06948e-10 -2.66432e-09 7.3162e-09 5.14547e-10 7.73091 5.47488 0.417314 -2.66433e-09 7.3162e-09 5.1455e-10 2.90554 0.965183 0.102902 -2.66432e-09 7.3162e-09 5.1455e-10 10.2786 0.731801 0.0259123 -2.66433e-09 7.31619e-09 5.14558e-10 2.22167 -0.733487 -0.20892 2.21216e-14 9.40119e-14 5.18703e-13 -69.705 15.2579 3.36077 10.0904 -4.53653 -17.5937 0.0712078 8.55459 -1.20919 -1.71768e-09 -2.00354e-09 1.75342e-09 -2.94984e-09 -3.44876e-09 3.04949e-09 -1.71768e-09 -2.00354e-09 1.75343e-09 -7.73091 5.47488 -0.417314 -1.71768e-09 -2.00353e-09 1.75342e-09 -2.90554 0.965183 -0.102902 -1.71769e-09 -2.00353e-09 1.75342e-09 -10.2786 0.731801 -0.0259123 -1.71767e-09 -2.00353e-09 1.7534e-09 -2.22167 -0.733487 0.20892 -2.03217e-16 0.0 -3.88251e-19 11.521 5.12365 3.20414 0.0357709 11.1236 0.425147 -0.439599 -9.95174 0.429802 2.03217e-16 0.0 3.88251e-19 7.14686 -31.8928 -1.28958 0.113809 25.0593 -0.37306 1.07841 0.51678 8.20621
57.1677 83.6593 -137.998 -5.7985 -7.6564 2.1291 8.76956 4.71431 2.68063 2.86015 -3.93794 0.94631 -8.27682 3.11604 -4.34393 9.60045 -2.55623 -6.50837 -0.0 0.0 0.0 -0.0 0.0 0.0 2.89455e-14 1.07938e-13 5.7419e-13 72.1547 20.4865 8.38357 -16.5532 -9.21148 30.8493 -0.0212307 4.15598 0.585122 -3.00484e-09 8.24135e-09 5.81259e-10 -5.19328e-09 1.42498e-08 1.02462e-09 -3.00484e-09 8.24135e-09 5.8125e-10 7.73091 5.47488 0.417314 -3.00484e-09 8.24135e-09 5.81253e-10 2.90554 0.965183 0.102902 -3.00484e-09 8.24135e-09 5.81252e-10 10.2786 0.731801 0.0259123 -3.00484e-09 8.24135e-09 5.81259e-10 2.22167 -0.733487 -0.20892 2.89524e-14 1.07942e-13 5.7409e-13 -85.3406 18.1292 4.37701 11.8855 -5.36858 -21.3884 0.140298 10.6178 -1.50973 -1.92415e-09 -2.22483e-09 1.98182e-09 -3.30411e-09 -3.82936e-09 3.44655e-09 -1.92416e-09 -2.22483e-09 1.98182e-09 -7.73091 5.47488 -0.417314 -1.92415e-09 -2.22483e-09 1.98181e-09 -2.90554 0.965183 -0.102902 -1.92416e-09 -2.22483e-09 1.98181e-09 -10.2786 0.731801 -0.0259123 -1.92415e-09 -2.22483e-09 1.9818e-09 -2.22167 -0.733487 0.20892 -2.03217e-16 0.0 -3.88251e-19 13.654 7.32416 4.01365 0.0199296 13.2751 0.524408 -0.372308 -12.6617 0.628595 2.03217e-16 0.0 3.88251e-19 8.4203 -38.2048 -2.1167 0.186167 29.8823 -0.481876 1.43068 -0.579606 10.4365
